<svg preserveAspectRatio="none" width="100%" height="100%" overflow="visible" style="display: block;" viewBox="0 0 12 7" fill="none" xmlns="http://www.w3.org/2000/svg">
<path id="Vector" d="M5.4481 0.1551L0.138095 5.7281C0.0494507 5.82109 0 5.94463 0 6.0731C0 6.20157 0.0494507 6.32511 0.138095 6.4181L0.144095 6.4241C0.187069 6.46934 0.238795 6.50535 0.296128 6.52997C0.353461 6.55458 0.415202 6.56728 0.477595 6.56728C0.539989 6.56728 0.60173 6.55458 0.659063 6.52997C0.716396 6.50535 0.768122 6.46934 0.811095 6.4241L5.8111 1.1761L10.8091 6.4241C10.8521 6.46934 10.9038 6.50535 10.9611 6.52997C11.0185 6.55458 11.0802 6.56728 11.1426 6.56728C11.205 6.56728 11.2667 6.55458 11.3241 6.52997C11.3814 6.50535 11.4331 6.46934 11.4761 6.4241L11.4821 6.4181C11.5707 6.32511 11.6202 6.20157 11.6202 6.0731C11.6202 5.94463 11.5707 5.82109 11.4821 5.7281L6.1721 0.1551C6.1254 0.106088 6.06923 0.0670689 6.00701 0.0404081C5.94478 0.0137474 5.87779 0 5.8101 0C5.7424 0 5.67541 0.0137474 5.61318 0.0404081C5.55096 0.0670689 5.49479 0.106088 5.4481 0.1551Z" fill="var(--fill-0, black)"/>
</svg>
