<svg preserveAspectRatio="none" width="100%" height="100%" overflow="visible" style="display: block;" viewBox="0 0 24 24" fill="none" xmlns="http://www.w3.org/2000/svg">
<g id="Icon">
<path id="Vector" d="M11.9981 21.9966C17.5201 21.9966 21.9966 17.5201 21.9966 11.9981C21.9966 6.47615 17.5201 1.99969 11.9981 1.99969C6.47615 1.99969 1.99969 6.47615 1.99969 11.9981C1.99969 17.5201 6.47615 21.9966 11.9981 21.9966Z" stroke="var(--stroke-0, #81D18A)" stroke-width="1.99969" stroke-linecap="round" stroke-linejoin="round"/>
<path id="Vector_2" d="M11.9981 17.9972C15.3113 17.9972 17.9972 15.3113 17.9972 11.9981C17.9972 8.68495 15.3113 5.99907 11.9981 5.99907C8.68495 5.99907 5.99907 8.68495 5.99907 11.9981C5.99907 15.3113 8.68495 17.9972 11.9981 17.9972Z" stroke="var(--stroke-0, #81D18A)" stroke-width="1.99969" stroke-linecap="round" stroke-linejoin="round"/>
<path id="Vector_3" d="M11.9985 13.9985C13.103 13.9985 13.9985 13.103 13.9985 11.9985C13.9985 10.8939 13.103 9.99846 11.9985 9.99846C10.8939 9.99846 9.99846 10.8939 9.99846 11.9985C9.99846 13.103 10.8939 13.9985 11.9985 13.9985Z" stroke="var(--stroke-0, #81D18A)" stroke-width="1.99969" stroke-linecap="round" stroke-linejoin="round"/>
</g>
</svg>
