<svg preserveAspectRatio="none" width="100%" height="100%" overflow="visible" style="display: block;" viewBox="0 0 24 24" fill="none" xmlns="http://www.w3.org/2000/svg">
<g id="Icon">
<path id="Vector" d="M14.9995 20.9993V12.9993C14.9995 12.7341 14.8942 12.4798 14.7066 12.2922C14.5191 12.1047 14.2647 11.9993 13.9995 11.9993H9.99951C9.73429 11.9993 9.47994 12.1047 9.2924 12.2922C9.10487 12.4798 8.99951 12.7341 8.99951 12.9993V20.9993" stroke="var(--stroke-0, #99A1AF)" stroke-width="1.99989" stroke-linecap="round" stroke-linejoin="round"/>
<path id="Vector_2" d="M3 9.99956C2.99993 9.70865 3.06333 9.42122 3.18578 9.15733C3.30822 8.89343 3.48677 8.65943 3.70896 8.47165L10.7086 2.47197C11.0695 2.1669 11.5269 1.99952 11.9995 1.99952C12.4721 1.99952 12.9295 2.1669 13.2904 2.47197L20.2901 8.47165C20.5122 8.65943 20.6908 8.89343 20.8132 9.15733C20.9357 9.42122 20.9991 9.70865 20.999 9.99956V18.9991C20.999 19.5295 20.7883 20.0382 20.4133 20.4132C20.0382 20.7883 19.5295 20.999 18.9991 20.999H4.99989C4.46949 20.999 3.96081 20.7883 3.58575 20.4132C3.2107 20.0382 3 19.5295 3 18.9991V9.99956Z" stroke="var(--stroke-0, #99A1AF)" stroke-width="1.99989" stroke-linecap="round" stroke-linejoin="round"/>
</g>
</svg>
