<svg preserveAspectRatio="none" width="100%" height="100%" overflow="visible" style="display: block;" viewBox="0 0 32 32" fill="none" xmlns="http://www.w3.org/2000/svg">
<g id="Icon">
<path id="Vector" d="M14.4321 21.8327C13.0353 22.5386 11.4641 22.8251 9.90816 22.6576C8.35218 22.4902 6.87792 21.876 5.66332 20.8891C4.44872 19.9023 3.5457 18.585 3.06326 17.0963C2.58082 15.6075 2.53959 14.0109 2.94453 12.4993L10.1586 14.4321C9.45274 13.0353 9.16625 11.4641 9.33369 9.90816C9.50112 8.35218 10.1153 6.87792 11.1022 5.66332C12.089 4.44872 13.4063 3.5457 14.8951 3.06326C16.3838 2.58082 17.9804 2.53959 19.492 2.94453L17.5592 10.1586C18.956 9.45274 20.5272 9.16625 22.0832 9.33369C23.6391 9.50112 25.1134 10.1153 26.328 11.1022C27.5426 12.089 28.4456 13.4063 28.9281 14.8951C29.4105 16.3838 29.4517 17.9804 29.0468 19.492L21.8327 17.5592C22.5386 18.956 22.8251 20.5272 22.6576 22.0832C22.4902 23.6391 21.876 25.1134 20.8891 26.328C19.9023 27.5426 18.585 28.4456 17.0963 28.9281C15.6075 29.4105 14.0109 29.4517 12.4993 29.0468L14.4321 21.8327Z" stroke="var(--stroke-0, #6A7282)" stroke-width="2.66594" stroke-linecap="round" stroke-linejoin="round"/>
<path id="Vector_2" d="M15.9957 15.9957V16.009" stroke="var(--stroke-0, #6A7282)" stroke-width="2.66594" stroke-linecap="round" stroke-linejoin="round"/>
</g>
</svg>
