<svg preserveAspectRatio="none" width="100%" height="100%" overflow="visible" style="display: block;" viewBox="0 0 130 27" fill="none" xmlns="http://www.w3.org/2000/svg">
<g id="Group">
<path id="recharts-line-:r6:" d="M3.0079 22.441C13.2701 17.8226 23.5331 13.2052 33.7953 13.2052C44.0575 13.2052 54.3205 17.8226 64.5827 17.8226C74.8449 17.8226 85.1079 10.8956 95.3701 8.58686C105.632 6.27816 115.895 5.12332 126.158 3.96847" stroke="var(--stroke-0, #10B981)" stroke-width="1.99995"/>
<g id="Group_2">
<path id="Vector" d="M3.0079 25.4099C4.11685 25.4099 5.01583 24.0807 5.01583 22.441C5.01583 20.8014 4.11685 19.4722 3.0079 19.4722C1.89895 19.4722 0.999974 20.8014 0.999974 22.441C0.999974 24.0807 1.89895 25.4099 3.0079 25.4099Z" fill="var(--fill-0, #FFFBF0)" stroke="var(--stroke-0, #10B981)" stroke-width="1.99995"/>
<path id="Vector_2" d="M33.7953 16.1737C34.9042 16.1737 35.8032 14.8445 35.8032 13.2049C35.8032 11.5653 34.9042 10.2361 33.7953 10.2361C32.6864 10.2361 31.7874 11.5653 31.7874 13.2049C31.7874 14.8445 32.6864 16.1737 33.7953 16.1737Z" fill="var(--fill-0, #FFFBF0)" stroke="var(--stroke-0, #10B981)" stroke-width="1.99995"/>
<path id="Vector_3" d="M64.5827 20.7918C65.6916 20.7918 66.5906 19.4626 66.5906 17.823C66.5906 16.1833 65.6916 14.8541 64.5827 14.8541C63.4738 14.8541 62.5748 16.1833 62.5748 17.823C62.5748 19.4626 63.4738 20.7918 64.5827 20.7918Z" fill="var(--fill-0, #FFFBF0)" stroke="var(--stroke-0, #10B981)" stroke-width="1.99995"/>
<path id="Vector_4" d="M95.3701 11.5557C96.4791 11.5557 97.378 10.2265 97.378 8.58686C97.378 6.94722 96.4791 5.61803 95.3701 5.61803C94.2612 5.61803 93.3622 6.94722 93.3622 8.58686C93.3622 10.2265 94.2612 11.5557 95.3701 11.5557Z" fill="var(--fill-0, #FFFBF0)" stroke="var(--stroke-0, #10B981)" stroke-width="1.99995"/>
<path id="Vector_5" d="M126.157 6.93763C127.266 6.93763 128.165 5.60844 128.165 3.9688C128.165 2.32916 127.266 0.999974 126.157 0.999974C125.049 0.999974 124.15 2.32916 124.15 3.9688C124.15 5.60844 125.049 6.93763 126.157 6.93763Z" fill="var(--fill-0, #FFFBF0)" stroke="var(--stroke-0, #10B981)" stroke-width="1.99995"/>
</g>
</g>
</svg>
