<svg preserveAspectRatio="none" width="100%" height="100%" overflow="visible" style="display: block;" viewBox="0 0 14 14" fill="none" xmlns="http://www.w3.org/2000/svg">
<g id="Icon">
<path id="Vector" d="M6.41667 11.6667C5.39237 11.6698 4.40432 11.2878 3.64847 10.5965C2.89263 9.90519 2.4242 8.95507 2.3361 7.93456C2.248 6.91406 2.54666 5.89771 3.17284 5.0871C3.79903 4.27649 4.707 3.73082 5.71667 3.55833C9.04167 2.91667 9.91667 2.61333 11.0833 1.16667C11.6667 2.33333 12.25 3.605 12.25 5.83333C12.25 9.04167 9.46167 11.6667 6.41667 11.6667Z" stroke="var(--stroke-0, white)" stroke-width="1.16667" stroke-linecap="round" stroke-linejoin="round"/>
<path id="Vector_2" d="M1.16667 12.25C1.16667 10.5 2.24583 9.12333 4.13 8.75C5.54167 8.47 7 7.58333 7.58333 7" stroke="var(--stroke-0, white)" stroke-width="1.16667" stroke-linecap="round" stroke-linejoin="round"/>
</g>
</svg>
