<svg preserveAspectRatio="none" width="100%" height="100%" overflow="visible" style="display: block;" viewBox="0 0 24 24" fill="none" xmlns="http://www.w3.org/2000/svg">
<g id="Icon">
<path id="Vector" d="M11.9995 21.9989C17.522 21.9989 21.9989 17.522 21.9989 11.9995C21.9989 6.47691 17.522 2 11.9995 2C6.47691 2 2 6.47691 2 11.9995C2 17.522 6.47691 21.9989 11.9995 21.9989Z" stroke="var(--stroke-0, #99A1AF)" stroke-width="1.99989" stroke-linecap="round" stroke-linejoin="round"/>
<path id="Vector_2" d="M11.9997 17.9997C15.3134 17.9997 17.9997 15.3134 17.9997 11.9997C17.9997 8.68596 15.3134 5.99967 11.9997 5.99967C8.68596 5.99967 5.99967 8.68596 5.99967 11.9997C5.99967 15.3134 8.68596 17.9997 11.9997 17.9997Z" stroke="var(--stroke-0, #99A1AF)" stroke-width="1.99989" stroke-linecap="round" stroke-linejoin="round"/>
<path id="Vector_3" d="M11.9995 13.9995C13.104 13.9995 13.9995 13.104 13.9995 11.9995C13.9995 10.8949 13.104 9.99945 11.9995 9.99945C10.8949 9.99945 9.99945 10.8949 9.99945 11.9995C9.99945 13.104 10.8949 13.9995 11.9995 13.9995Z" stroke="var(--stroke-0, #99A1AF)" stroke-width="1.99989" stroke-linecap="round" stroke-linejoin="round"/>
</g>
</svg>
