<svg preserveAspectRatio="none" width="100%" height="100%" overflow="visible" style="display: block;" viewBox="0 0 24 24" fill="none" xmlns="http://www.w3.org/2000/svg">
<g id="Icon">
<g id="Vector">
<path d="M9.99846 14.6577V16.2835C9.99468 16.626 9.90296 16.9619 9.73208 17.2588C9.5612 17.5558 9.3169 17.8038 9.02261 17.9792C8.39785 18.4419 7.88962 19.044 7.53832 19.7376C7.18702 20.4312 7.00233 21.1971 6.99892 21.9746" fill="var(--fill-0, #00A63E)"/>
<path d="M9.99846 14.6577V16.2835C9.99468 16.626 9.90296 16.9619 9.73208 17.2588C9.5612 17.5558 9.3169 17.8038 9.02261 17.9792C8.39785 18.4419 7.88962 19.044 7.53832 19.7376C7.18702 20.4312 7.00233 21.1971 6.99892 21.9746" stroke="var(--stroke-0, #00A63E)" stroke-width="1.99969" stroke-linecap="round" stroke-linejoin="round"/>
</g>
<g id="Vector_2">
<path d="M13.9978 14.6577V16.2835C14.0016 16.626 14.0933 16.9619 14.2642 17.2588C14.4351 17.5558 14.6794 17.8038 14.9737 17.9792C15.5985 18.4419 16.1067 19.044 16.458 19.7376C16.8093 20.4312 16.994 21.1971 16.9974 21.9746" fill="var(--fill-0, #00A63E)"/>
<path d="M13.9978 14.6577V16.2835C14.0016 16.626 14.0933 16.9619 14.2642 17.2588C14.4351 17.5558 14.6794 17.8038 14.9737 17.9792C15.5985 18.4419 16.1067 19.044 16.458 19.7376C16.8093 20.4312 16.994 21.1971 16.9974 21.9746" stroke="var(--stroke-0, #00A63E)" stroke-width="1.99969" stroke-linecap="round" stroke-linejoin="round"/>
</g>
<g id="Vector_3">
<path d="M17.9972 8.99938H19.4972C20.1603 8.99938 20.7961 8.73599 21.265 8.26715C21.7338 7.79831 21.9972 7.16242 21.9972 6.49938C21.9972 5.83634 21.7338 5.20046 21.265 4.73162C20.7961 4.26278 20.1603 3.99938 19.4972 3.99938H17.9972" fill="var(--fill-0, #00A63E)"/>
<path d="M17.9972 8.99938H19.4972C20.1603 8.99938 20.7961 8.73599 21.265 8.26715C21.7338 7.79831 21.9972 7.16242 21.9972 6.49938C21.9972 5.83634 21.7338 5.20046 21.265 4.73162C20.7961 4.26278 20.1603 3.99938 19.4972 3.99938H17.9972" stroke="var(--stroke-0, #00A63E)" stroke-width="1.99969" stroke-linecap="round" stroke-linejoin="round"/>
</g>
<g id="Vector_4">
<path d="M3.99938 21.9966H19.9969Z" fill="var(--fill-0, #00A63E)"/>
<path d="M3.99938 21.9966H19.9969" stroke="var(--stroke-0, #00A63E)" stroke-width="1.99969" stroke-linecap="round" stroke-linejoin="round"/>
</g>
<path id="Vector_5" d="M5.99907 8.99861C5.99907 10.5897 6.63112 12.1156 7.75616 13.2406C8.88121 14.3656 10.4071 14.9977 11.9981 14.9977C13.5892 14.9977 15.1151 14.3656 16.2401 13.2406C17.3652 12.1156 17.9972 10.5897 17.9972 8.99861V2.99954C17.9972 2.73436 17.8919 2.48005 17.7044 2.29254C17.5169 2.10503 17.2626 1.99969 16.9974 1.99969H6.99892C6.73374 1.99969 6.47943 2.10503 6.29192 2.29254C6.10442 2.48005 5.99907 2.73436 5.99907 2.99954V8.99861Z" fill="var(--fill-0, #00A63E)" stroke="var(--stroke-0, #00A63E)" stroke-width="1.99969" stroke-linecap="round" stroke-linejoin="round"/>
<g id="Vector_6">
<path d="M5.99969 8.99938H4.49969C3.83665 8.99938 3.20077 8.73599 2.73192 8.26715C2.26308 7.79831 1.99969 7.16242 1.99969 6.49938C1.99969 5.83634 2.26308 5.20046 2.73192 4.73162C3.20077 4.26278 3.83665 3.99938 4.49969 3.99938H5.99969" fill="var(--fill-0, #00A63E)"/>
<path d="M5.99969 8.99938H4.49969C3.83665 8.99938 3.20077 8.73599 2.73192 8.26715C2.26308 7.79831 1.99969 7.16242 1.99969 6.49938C1.99969 5.83634 2.26308 5.20046 2.73192 4.73162C3.20077 4.26278 3.83665 3.99938 4.49969 3.99938H5.99969" stroke="var(--stroke-0, #00A63E)" stroke-width="1.99969" stroke-linecap="round" stroke-linejoin="round"/>
</g>
</g>
</svg>
