<svg preserveAspectRatio="none" width="100%" height="100%" overflow="visible" style="display: block;" viewBox="0 0 24 24" fill="none" xmlns="http://www.w3.org/2000/svg">
<g id="Icon">
<g id="Vector">
<path d="M18.9997 20.9992V18.9992C18.9997 17.9383 18.5783 16.9209 17.8282 16.1708C17.078 15.4206 16.0606 14.9992 14.9997 14.9992H8.99973C7.93886 14.9992 6.92144 15.4206 6.1713 16.1708C5.42115 16.9209 4.99973 17.9383 4.99973 18.9992V20.9992" fill="var(--fill-0, #00A63E)"/>
<path d="M18.9997 20.9992V18.9992C18.9997 17.9383 18.5783 16.9209 17.8282 16.1708C17.078 15.4206 16.0606 14.9992 14.9997 14.9992H8.99973C7.93886 14.9992 6.92144 15.4206 6.1713 16.1708C5.42115 16.9209 4.99973 17.9383 4.99973 18.9992V20.9992" stroke="var(--stroke-0, #00A63E)" stroke-width="1.99989" stroke-linecap="round" stroke-linejoin="round"/>
</g>
<path id="Vector_2" d="M11.9996 10.9998C14.2087 10.9998 15.9996 9.20897 15.9996 6.99984C15.9996 4.7907 14.2087 2.99984 11.9996 2.99984C9.79042 2.99984 7.99956 4.7907 7.99956 6.99984C7.99956 9.20897 9.79042 10.9998 11.9996 10.9998Z" fill="var(--fill-0, #00A63E)" stroke="var(--stroke-0, #00A63E)" stroke-width="1.99989" stroke-linecap="round" stroke-linejoin="round"/>
</g>
</svg>
