<svg preserveAspectRatio="none" width="100%" height="100%" overflow="visible" style="display: block;" viewBox="0 0 32 34" fill="none" xmlns="http://www.w3.org/2000/svg">
<g id="Icon">
<path id="Vector" d="M10.6667 31.1667C11.403 31.1667 12 30.5324 12 29.75C12 28.9676 11.403 28.3333 10.6667 28.3333C9.93029 28.3333 9.33333 28.9676 9.33333 29.75C9.33333 30.5324 9.93029 31.1667 10.6667 31.1667Z" stroke="var(--stroke-0, #364153)" stroke-width="1.66657" stroke-linecap="round" stroke-linejoin="round"/>
<path id="Vector_2" d="M25.3333 31.1667C26.0697 31.1667 26.6667 30.5324 26.6667 29.75C26.6667 28.9676 26.0697 28.3333 25.3333 28.3333C24.597 28.3333 24 28.9676 24 29.75C24 30.5324 24.597 31.1667 25.3333 31.1667Z" stroke="var(--stroke-0, #364153)" stroke-width="1.66657" stroke-linecap="round" stroke-linejoin="round"/>
<path id="Vector_3" d="M2.73333 2.90415H5.4L8.94667 20.4992C9.07677 21.1435 9.41423 21.7196 9.90095 22.1281C10.3877 22.5367 10.9932 22.7521 11.6133 22.7375H24.6533C25.2602 22.7364 25.8486 22.5155 26.3214 22.1111C26.7941 21.7067 27.1229 21.1431 27.2533 20.5133L29.4533 9.98748H6.82667" stroke="var(--stroke-0, #364153)" stroke-width="1.66657" stroke-linecap="round" stroke-linejoin="round"/>
</g>
</svg>
