<svg preserveAspectRatio="none" width="100%" height="100%" overflow="visible" style="display: block;" viewBox="0 0 32 34" fill="none" xmlns="http://www.w3.org/2000/svg">
<g id="Icon">
<path id="Vector" d="M28.56 15.4728C28.7987 15.3609 29.0012 15.1771 29.1426 14.9441C29.2839 14.7111 29.3578 14.4392 29.3551 14.162C29.3524 13.8849 29.2732 13.6146 29.1274 13.3848C28.9816 13.1549 28.7755 12.9756 28.5347 12.869L17.1067 7.33832C16.7592 7.16995 16.3819 7.08281 16 7.08281C15.6181 7.08281 15.2407 7.16995 14.8933 7.33832L3.46667 12.8633C3.22929 12.9738 3.02736 13.1553 2.88556 13.3858C2.74376 13.6163 2.66824 13.8856 2.66824 14.161C2.66824 14.4363 2.74376 14.7057 2.88556 14.9362C3.02736 15.1666 3.22929 15.3482 3.46667 15.4587L14.8933 20.995C15.2407 21.1634 15.6181 21.2505 16 21.2505C16.3819 21.2505 16.7592 21.1634 17.1067 20.995L28.56 15.4728Z" stroke="var(--stroke-0, #364153)" stroke-width="1.66657" stroke-linecap="round" stroke-linejoin="round"/>
<path id="Vector_2" d="M29.3333 14.1667V22.6661" stroke="var(--stroke-0, #364153)" stroke-width="1.66657" stroke-linecap="round" stroke-linejoin="round"/>
<path id="Vector_3" d="M8 17.7083V22.6667C8 23.7938 8.84286 24.8748 10.3431 25.6719C11.8434 26.4689 13.8783 26.9167 16 26.9167C18.1217 26.9167 20.1566 26.4689 21.6569 25.6719C23.1571 24.8748 24 23.7938 24 22.6667V17.7083" stroke="var(--stroke-0, #364153)" stroke-width="1.66657" stroke-linecap="round" stroke-linejoin="round"/>
</g>
</svg>
