<svg preserveAspectRatio="none" width="100%" height="100%" overflow="visible" style="display: block;" viewBox="0 0 24 24" fill="none" xmlns="http://www.w3.org/2000/svg">
<g id="Icon">
<g id="Vector">
<path d="M14.9997 13.9999C15.1997 12.9999 15.6997 12.2999 16.4997 11.4999C17.4997 10.5999 17.9997 9.29989 17.9997 7.99989C17.9997 6.40859 17.3675 4.88247 16.2423 3.75725C15.1171 2.63203 13.591 1.99989 11.9997 1.99989C10.4084 1.99989 8.88225 2.63203 7.75703 3.75725C6.63181 4.88247 5.99967 6.40859 5.99967 7.99989C5.99967 8.99989 6.19967 10.1999 7.49967 11.4999C8.19967 12.1999 8.79967 12.9999 8.99967 13.9999" fill="var(--fill-0, #FEC628)"/>
<path d="M14.9997 13.9999C15.1997 12.9999 15.6997 12.2999 16.4997 11.4999C17.4997 10.5999 17.9997 9.29989 17.9997 7.99989C17.9997 6.40859 17.3675 4.88247 16.2423 3.75725C15.1171 2.63203 13.591 1.99989 11.9997 1.99989C10.4084 1.99989 8.88225 2.63203 7.75703 3.75725C6.63181 4.88247 5.99967 6.40859 5.99967 7.99989C5.99967 8.99989 6.19967 10.1999 7.49967 11.4999C8.19967 12.1999 8.79967 12.9999 8.99967 13.9999" stroke="var(--stroke-0, #FEC628)" stroke-width="1.99989" stroke-linecap="round" stroke-linejoin="round"/>
</g>
<g id="Vector_2">
<path d="M8.9995 17.999H14.9995Z" fill="var(--fill-0, #FEC628)"/>
<path d="M8.9995 17.999H14.9995" stroke="var(--stroke-0, #FEC628)" stroke-width="1.99989" stroke-linecap="round" stroke-linejoin="round"/>
</g>
<g id="Vector_3">
<path d="M9.99945 21.9988H13.9994Z" fill="var(--fill-0, #FEC628)"/>
<path d="M9.99945 21.9988H13.9994" stroke="var(--stroke-0, #FEC628)" stroke-width="1.99989" stroke-linecap="round" stroke-linejoin="round"/>
</g>
</g>
</svg>
