<svg preserveAspectRatio="none" width="100%" height="100%" overflow="visible" style="display: block;" viewBox="0 0 24 24" fill="none" xmlns="http://www.w3.org/2000/svg">
<g id="Icon">
<g id="Vector">
<path d="M13.9978 9.53453V6.99892C13.9978 5.93822 14.4192 4.92096 15.1692 4.17093C15.9193 3.4209 16.9365 2.99954 17.9972 2.99954H19.497C19.6296 2.99954 19.7567 3.05221 19.8505 3.14596C19.9442 3.23972 19.9969 3.36687 19.9969 3.49946V4.99923C19.9969 6.05993 19.5756 7.07719 18.8255 7.82722C18.0755 8.57725 17.0582 8.99861 15.9975 8.99861C14.9368 8.99861 13.9196 9.41997 13.1695 10.17C12.4195 10.92 11.9981 11.9373 11.9981 12.998C11.9981 14.9977 12.998 15.9975 12.998 17.9972C12.998 19.0789 12.6472 20.1314 11.9981 20.9968" fill="var(--fill-0, #6BBF76)"/>
<path d="M13.9978 9.53453V6.99892C13.9978 5.93822 14.4192 4.92096 15.1692 4.17093C15.9193 3.4209 16.9365 2.99954 17.9972 2.99954H19.497C19.6296 2.99954 19.7567 3.05221 19.8505 3.14596C19.9442 3.23972 19.9969 3.36687 19.9969 3.49946V4.99923C19.9969 6.05993 19.5756 7.07719 18.8255 7.82722C18.0755 8.57725 17.0582 8.99861 15.9975 8.99861C14.9368 8.99861 13.9196 9.41997 13.1695 10.17C12.4195 10.92 11.9981 11.9373 11.9981 12.998C11.9981 14.9977 12.998 15.9975 12.998 17.9972C12.998 19.0789 12.6472 20.1314 11.9981 20.9968" stroke="var(--stroke-0, #6BBF76)" stroke-width="1.99969" stroke-linecap="round" stroke-linejoin="round"/>
</g>
<path id="Vector_2" d="M3.99938 8.99861C4.74212 8.44156 5.6253 8.10235 6.54996 8.01897C7.47463 7.93559 8.40424 8.11135 9.23464 8.52655C10.065 8.94175 10.7634 9.57999 11.2515 10.3697C11.7396 11.1595 11.9981 12.0696 11.9981 12.998C11.2554 13.555 10.3722 13.8943 9.44757 13.9776C8.52291 14.061 7.59329 13.8853 6.76289 13.4701C5.93249 13.0549 5.23411 12.4166 4.74601 11.6269C4.25792 10.8371 3.99938 9.92703 3.99938 8.99861Z" fill="var(--fill-0, #6BBF76)" stroke="var(--stroke-0, #6BBF76)" stroke-width="1.99969" stroke-linecap="round" stroke-linejoin="round"/>
<g id="Vector_3">
<path d="M4.99923 20.9968H18.9971Z" fill="var(--fill-0, #6BBF76)"/>
<path d="M4.99923 20.9968H18.9971" stroke="var(--stroke-0, #6BBF76)" stroke-width="1.99969" stroke-linecap="round" stroke-linejoin="round"/>
</g>
</g>
</svg>
