<svg preserveAspectRatio="none" width="100%" height="100%" overflow="visible" style="display: block;" viewBox="0 0 20 20" fill="none" xmlns="http://www.w3.org/2000/svg">
<g id="Icon" clip-path="url(#clip0_1_2597)">
<path id="Vector" d="M8.5546 17.4958C8.70085 17.7491 8.9112 17.9594 9.16449 18.1056C9.41779 18.2518 9.70511 18.3288 9.99759 18.3288C10.2901 18.3288 10.5774 18.2518 10.8307 18.1056C11.084 17.9594 11.2943 17.7491 11.4406 17.4958" stroke="var(--stroke-0, #0A0A0A)" stroke-width="1.66626" stroke-linecap="round" stroke-linejoin="round"/>
<path id="Vector_2" d="M2.71768 12.7686C2.60884 12.8879 2.53702 13.0362 2.51094 13.1956C2.48486 13.3549 2.50566 13.5184 2.5708 13.6662C2.63594 13.814 2.74262 13.9396 2.87785 14.0278C3.01309 14.1161 3.17105 14.1631 3.33253 14.1632H16.6626C16.8241 14.1633 16.9821 14.1164 17.1174 14.0284C17.2527 13.9403 17.3596 13.8148 17.4249 13.6671C17.4902 13.5195 17.5112 13.356 17.4853 13.1966C17.4594 13.0373 17.3878 12.8888 17.2792 12.7694C16.1711 11.6272 14.9964 10.4133 14.9964 6.66506C14.9964 5.33929 14.4697 4.06783 13.5323 3.13038C12.5948 2.19292 11.3233 1.66626 9.99759 1.66626C8.67182 1.66626 7.40036 2.19292 6.46291 3.13038C5.52545 4.06783 4.99879 5.33929 4.99879 6.66506C4.99879 10.4133 3.82324 11.6272 2.71768 12.7686Z" stroke="var(--stroke-0, #0A0A0A)" stroke-width="1.66626" stroke-linecap="round" stroke-linejoin="round"/>
</g>
<defs>
<clipPath id="clip0_1_2597">
<rect width="19.9952" height="19.9952" fill="white"/>
</clipPath>
</defs>
</svg>
