<svg preserveAspectRatio="none" width="100%" height="100%" overflow="visible" style="display: block;" viewBox="0 0 32 32" fill="none" xmlns="http://www.w3.org/2000/svg">
<g id="Icon">
<g id="Vector">
<path d="M19.9946 18.6616C20.2612 17.3286 20.9277 16.3956 21.994 15.3292C23.327 14.1295 23.9935 12.3966 23.9935 10.6638C23.9935 8.54262 23.1509 6.50834 21.651 5.00846C20.1511 3.50857 18.1168 2.66594 15.9957 2.66594C13.8745 2.66594 11.8402 3.50857 10.3403 5.00846C8.84046 6.50834 7.99783 8.54262 7.99783 10.6638C7.99783 11.9967 8.26443 13.5963 9.99729 15.3292C10.9304 16.2623 11.7302 17.3286 11.9967 18.6616" fill="var(--fill-0, #FFD769)"/>
<path d="M19.9946 18.6616C20.2612 17.3286 20.9277 16.3956 21.994 15.3292C23.327 14.1295 23.9935 12.3966 23.9935 10.6638C23.9935 8.54262 23.1509 6.50834 21.651 5.00846C20.1511 3.50857 18.1168 2.66594 15.9957 2.66594C13.8745 2.66594 11.8402 3.50857 10.3403 5.00846C8.84046 6.50834 7.99783 8.54262 7.99783 10.6638C7.99783 11.9967 8.26443 13.5963 9.99729 15.3292C10.9304 16.2623 11.7302 17.3286 11.9967 18.6616" stroke="var(--stroke-0, #FFD769)" stroke-width="2.66594" stroke-linecap="round" stroke-linejoin="round"/>
</g>
<g id="Vector_2">
<path d="M11.9967 23.9935H19.9946Z" fill="var(--fill-0, #FFD769)"/>
<path d="M11.9967 23.9935H19.9946" stroke="var(--stroke-0, #FFD769)" stroke-width="2.66594" stroke-linecap="round" stroke-linejoin="round"/>
</g>
<g id="Vector_3">
<path d="M13.3297 29.3254H18.6616Z" fill="var(--fill-0, #FFD769)"/>
<path d="M13.3297 29.3254H18.6616" stroke="var(--stroke-0, #FFD769)" stroke-width="2.66594" stroke-linecap="round" stroke-linejoin="round"/>
</g>
</g>
</svg>
