<svg preserveAspectRatio="none" width="100%" height="100%" overflow="visible" style="display: block;" viewBox="0 0 126 16" fill="none" xmlns="http://www.w3.org/2000/svg">
<g id="Frame 1707482895">
<path id="Vector" d="M63.6685 0.392215C63.7618 0.0882824 64.4228 0.16464 64.7022 0.167634L64.7748 1.81056C65.9951 0.0573363 68.3598 -0.2421 70.3157 0.237505C71.659 0.56689 72.0386 1.2037 72.8171 2.25923C73.6371 -0.413779 79.0492 -0.641853 80.4719 1.3105C80.6363 1.53608 80.9596 2.24426 81.0426 2.52523C81.1581 2.9175 81.3788 4.07084 81.3788 4.42518V11.8184H80.1979V3.52886C80.1979 3.42455 79.8237 2.36503 79.7329 2.20683C78.7273 0.4536 74.5686 0.764518 73.5778 2.50527C73.487 2.66447 73.1133 3.72299 73.1133 3.8273V11.8179H71.9325V3.8273C71.9325 3.62468 71.5898 2.60109 71.4709 2.35256C70.4909 0.307375 65.8924 0.638253 65.073 3.00933C64.9668 3.31625 64.7002 4.46411 64.7002 4.72313V11.8174H63.667V0.391715L63.6685 0.392215Z" fill="var(--fill-0, #1F1F1F)"/>
<path id="Vector_2" d="M83.4121 9.57749V16H82.3789V0.317278H83.4121V2.5576L84.667 1.06438C90.1161 -2.09272 95.7879 2.18729 93.751 8.46507C92.3539 12.7715 85.6998 13.2711 83.4121 9.57749ZM84.6458 9.82303C86.1861 11.3736 90.3625 11.3028 91.8825 9.71074C93.476 8.04186 93.4148 3.73789 91.6786 2.18329C90.0994 0.768935 86.1066 0.810359 84.5871 2.32803C82.9713 3.94101 83.0325 8.19906 84.6458 9.82303Z" fill="var(--fill-0, #1F1F1F)"/>
<path id="Vector_3" d="M61.4861 9.72715C61.1938 9.86389 61.0818 10.332 60.8428 10.5701C57.9036 13.4951 51.946 12.1626 51.051 7.66649C49.7921 1.3418 55.2639 -1.85823 60.44 1.15215L61.4846 2.40781C61.5735 1.95166 61.3375 0.614655 61.5508 0.308227C61.7472 0.0257544 62.6669 0.155515 62.6669 0.392073V11.8177H61.4861V9.72665V9.72715ZM55.3997 1.25197C53.5929 1.49851 52.2669 2.91486 52.0566 4.73946C51.5891 8.79738 53.1861 11.2723 57.4331 10.9274C60.7614 10.6569 61.7043 8.42059 61.4935 5.31438C61.2481 1.70013 58.6179 0.813786 55.4002 1.25247L55.3997 1.25197Z" fill="var(--fill-0, #1F1F1F)"/>
<path id="Vector_4" d="M11.6849 5.99317H1.20629C0.920954 9.6773 3.32758 11.2394 6.72154 10.9025C8.0653 10.7693 9.3513 10.2572 10.0331 9.02601C10.2621 8.61229 10.5914 7.25981 10.6714 7.20741C10.8382 7.09861 11.4311 7.23785 11.6844 7.18894C11.2105 10.9704 8.18428 12.3453 4.68961 11.952C-1.25908 11.2818 -1.54244 1.6947 3.80545 0.334738C7.98385 -0.727778 11.9194 1.23855 11.6849 5.99317ZM10.6516 5.09685C10.2537 1.81049 8.1043 0.995503 5.11021 1.20661C2.79245 1.3703 1.29318 2.68685 1.20581 5.09685H10.6516Z" fill="var(--fill-0, #81D18A)"/>
<path id="Vector_5" d="M122.744 0.0188101V3.00573H125.695V5.69421H122.744V8.68114H120.087V5.9178C120.087 5.90183 119.882 5.69371 119.866 5.69371H117.136V3.00523H120.087V0.0183105H122.744V0.0188101Z" fill="var(--fill-0, #81D18A)"/>
<path id="Vector_6" d="M30.8501 0.0637104C35.5064 -0.211276 37.95 3.29767 36.9824 7.76234C36.2261 11.2508 33.3495 12.3178 30.0839 11.9515C23.9027 11.2578 23.4253 0.502391 30.8506 0.0637104H30.8501ZM29.8085 1.2495C28.0377 1.52848 26.7536 3.09655 26.5937 4.86675C26.2239 8.95612 27.7069 11.2578 31.9919 10.9274C35.3533 10.6684 36.3199 8.28686 36.0509 5.16619C35.7458 1.6263 32.9102 0.76041 29.8085 1.2495Z" fill="var(--fill-0, #81D18A)"/>
<path id="Vector_7" d="M114.718 1.41622C115.231 1.9617 115.535 2.7607 115.804 3.45291C114.336 3.69097 114.642 3.14698 114.032 2.335C112.694 0.551827 107.555 0.688571 107.989 3.51979C108.102 4.25192 108.894 4.56883 109.505 4.82585C111.842 5.81001 116.664 5.80302 116.089 9.49463C115.87 10.8945 113.885 11.8408 112.629 11.967C110.007 12.23 107.077 11.6117 106.358 8.68364C107.864 8.39718 107.503 9.13281 108.198 9.88241C110.004 11.8318 116.448 10.9873 114.832 8.09774C113.71 6.09148 106.879 7.01477 106.789 3.23083C106.703 -0.365956 112.645 -0.789165 114.718 1.41672V1.41622Z" fill="var(--fill-0, #1F1F1F)"/>
<path id="Vector_8" d="M49.8679 4.79744C48.4461 4.98759 48.8559 4.50748 48.4634 3.60517C47.5077 1.40927 45.5118 1.01101 43.2947 1.20814C39.6899 1.52804 38.7772 4.80343 39.5799 7.96503C40.5766 11.8897 47.1379 11.971 48.5705 8.33983C48.9334 7.42004 48.416 6.99983 49.8684 7.18797C49.5218 10.9215 46.5672 12.2705 43.1471 11.9725C36.9224 11.4306 36.6366 1.86541 41.8675 0.361222C45.4185 -0.659872 49.4374 0.699092 49.8679 4.79744Z" fill="var(--fill-0, #1F1F1F)"/>
<path id="Vector_9" d="M24.3638 4.79735C22.947 5.08032 23.335 4.25835 22.8453 3.27319C21.4408 0.447966 15.8722 0.402052 14.4194 3.17288C13.3476 5.21606 13.6048 9.29795 15.9522 10.3984C18.3667 11.5303 21.9843 11.0921 23.0669 8.33974C23.4328 7.40997 22.9124 7.00173 24.3643 7.18838C24.0069 10.9499 20.9229 12.3038 17.5023 11.966C11.5546 11.3786 11.057 1.9302 16.396 0.39407C19.9815 -0.637504 23.8751 0.679037 24.3633 4.79735H24.3638Z" fill="var(--fill-0, #81D18A)"/>
<path id="Vector_10" d="M96.208 0.317383V6.51581C96.208 6.93553 96.3947 8.15076 96.5117 8.59792C96.7397 9.47029 97.34 10.2843 98.1733 10.6506C99.5689 11.264 102.136 11.1956 103.278 10.0861C103.75 9.627 104.325 8.19367 104.325 7.56136V0.317383H105.359V11.8179L104.325 11.8189L104.252 10.0243C103.178 12.4937 98.5179 12.5091 96.7284 11.0673C95.8738 10.3786 95.1748 8.79755 95.1748 7.71058V0.317383H96.208Z" fill="var(--fill-0, #1F1F1F)"/>
</g>
</svg>
