<svg preserveAspectRatio="none" width="100%" height="100%" overflow="visible" style="display: block;" viewBox="0 0 32 34" fill="none" xmlns="http://www.w3.org/2000/svg">
<g id="Icon">
<path id="Vector" d="M13.3333 2.83333V5.66667" stroke="var(--stroke-0, #364153)" stroke-width="1.66657" stroke-linecap="round" stroke-linejoin="round"/>
<path id="Vector_2" d="M18.6667 2.83333V5.66667" stroke="var(--stroke-0, #364153)" stroke-width="1.66657" stroke-linecap="round" stroke-linejoin="round"/>
<path id="Vector_3" d="M21.3333 11.3333C21.687 11.3333 22.0261 11.4826 22.2761 11.7483C22.5262 12.0139 22.6667 12.3743 22.6667 12.75V24.0833C22.6667 25.5862 22.1048 27.0276 21.1046 28.0903C20.1044 29.153 18.7478 29.75 17.3333 29.75H9.33333C7.91885 29.75 6.56229 29.153 5.5621 28.0903C4.5619 27.0276 4 25.5862 4 24.0833V12.75C4 12.3743 4.14048 12.0139 4.39052 11.7483C4.64057 11.4826 4.97971 11.3333 5.33333 11.3333H24C25.4145 11.3333 26.771 11.9304 27.7712 12.9931C28.7714 14.0558 29.3333 15.4971 29.3333 17C29.3333 18.5029 28.7714 19.9442 27.7712 21.0069C26.771 22.0696 25.4145 22.6667 24 22.6667H22.6667" stroke="var(--stroke-0, #364153)" stroke-width="1.66657" stroke-linecap="round" stroke-linejoin="round"/>
<path id="Vector_4" d="M8 2.83333V5.66667" stroke="var(--stroke-0, #364153)" stroke-width="1.66657" stroke-linecap="round" stroke-linejoin="round"/>
</g>
</svg>
