<svg preserveAspectRatio="none" width="100%" height="100%" overflow="visible" style="display: block;" viewBox="0 0 20 20" fill="none" xmlns="http://www.w3.org/2000/svg">
<g id="Icon" clip-path="url(#clip0_3_775)">
<path id="Vector" d="M8.55615 17.4989C8.70243 17.7523 8.91281 17.9626 9.16615 18.1089C9.41949 18.2551 9.70687 18.3321 9.9994 18.3321C10.2919 18.3321 10.5793 18.2551 10.8326 18.1089C11.086 17.9626 11.2964 17.7523 11.4426 17.4989" stroke="var(--stroke-0, #0A0A0A)" stroke-width="1.66657" stroke-linecap="round" stroke-linejoin="round"/>
<path id="Vector_2" d="M2.71817 12.7709C2.60931 12.8902 2.53748 13.0386 2.51139 13.198C2.48531 13.3573 2.50611 13.5209 2.57127 13.6687C2.63642 13.8164 2.74311 13.9421 2.87837 14.0304C3.01363 14.1186 3.17162 14.1657 3.33313 14.1658H16.6657C16.8271 14.1659 16.9852 14.119 17.1205 14.0309C17.2559 13.9428 17.3627 13.8173 17.428 13.6696C17.4933 13.5219 17.5143 13.3584 17.4885 13.199C17.4626 13.0396 17.391 12.8912 17.2823 12.7717C16.174 11.6293 14.9991 10.4152 14.9991 6.66626C14.9991 5.34026 14.4723 4.06857 13.5347 3.13094C12.5971 2.19332 11.3254 1.66657 9.99939 1.66657C8.67339 1.66657 7.4017 2.19332 6.46407 3.13094C5.52645 4.06857 4.9997 5.34026 4.9997 6.66626C4.9997 10.4152 3.82394 11.6293 2.71817 12.7709Z" stroke="var(--stroke-0, #0A0A0A)" stroke-width="1.66657" stroke-linecap="round" stroke-linejoin="round"/>
</g>
<defs>
<clipPath id="clip0_3_775">
<rect width="19.9988" height="19.9988" fill="white"/>
</clipPath>
</defs>
</svg>
