<svg preserveAspectRatio="none" width="100%" height="100%" overflow="visible" style="display: block;" viewBox="0 0 20 20" fill="none" xmlns="http://www.w3.org/2000/svg">
<g id="Frame" clip-path="url(#clip0_4_891)">
<path id="Vector" d="M0.830882 17.5L9.97059 1.66667L19.1103 17.5H0.830882ZM9.97059 15C10.206 15 10.4035 14.92 10.563 14.76C10.7225 14.6 10.802 14.4022 10.8015 14.1667C10.8009 13.9311 10.7212 13.7333 10.5622 13.5733C10.4032 13.4133 10.206 13.3333 9.97059 13.3333C9.73517 13.3333 9.53798 13.4133 9.379 13.5733C9.22002 13.7333 9.14026 13.9311 9.13971 14.1667C9.13915 14.4022 9.21892 14.6003 9.379 14.7608C9.53908 14.9214 9.73628 15.0011 9.97059 15ZM9.13971 12.5H10.8015V8.33333H9.13971V12.5Z" fill="var(--fill-0, #FFC82F)"/>
</g>
<defs>
<clipPath id="clip0_4_891">
<rect width="19.9412" height="20" fill="white"/>
</clipPath>
</defs>
</svg>
