<svg preserveAspectRatio="none" width="100%" height="100%" overflow="visible" style="display: block;" viewBox="0 0 24 24" fill="none" xmlns="http://www.w3.org/2000/svg">
<g id="Icon">
<path id="Vector" d="M13.9993 9.53584V6.99984C13.9993 5.93897 14.4208 4.92155 15.1709 4.17141C15.9211 3.42126 16.9385 2.99984 17.9993 2.99984H19.4993C19.632 2.99984 19.7591 3.05251 19.8529 3.14628C19.9467 3.24005 19.9993 3.36723 19.9993 3.49984V4.99984C19.9993 6.0607 19.5779 7.07812 18.8278 7.82826C18.0776 8.57841 17.0602 8.99984 15.9993 8.99984C14.9385 8.99984 13.9211 9.42126 13.1709 10.1714C12.4208 10.9216 11.9993 11.939 11.9993 12.9998C11.9993 14.9998 12.9993 15.9998 12.9993 17.9998C12.9993 19.0817 12.6485 20.1344 11.9993 20.9998" stroke="var(--stroke-0, #99A1AF)" stroke-width="1.99989" stroke-linecap="round" stroke-linejoin="round"/>
<path id="Vector_2" d="M3.99978 8.99956C4.74263 8.44243 5.62595 8.10316 6.55075 8.01977C7.47556 7.93638 8.40532 8.11216 9.23585 8.52743C10.0664 8.94269 10.7649 9.58103 11.253 10.3709C11.7412 11.1608 11.9998 12.071 11.9998 12.9996C11.2569 13.5567 10.3736 13.896 9.44881 13.9794C8.524 14.0628 7.59424 13.887 6.76371 13.4717C5.93318 13.0564 5.2347 12.4181 4.74653 11.6282C4.25835 10.8383 3.99978 9.92812 3.99978 8.99956Z" stroke="var(--stroke-0, #99A1AF)" stroke-width="1.99989" stroke-linecap="round" stroke-linejoin="round"/>
<path id="Vector_3" d="M4.99973 20.9988H18.9997" stroke="var(--stroke-0, #99A1AF)" stroke-width="1.99989" stroke-linecap="round" stroke-linejoin="round"/>
</g>
</svg>
