<svg preserveAspectRatio="none" width="100%" height="100%" overflow="visible" style="display: block;" viewBox="0 0 24 24" fill="none" xmlns="http://www.w3.org/2000/svg">
<g id="Icon">
<path id="Vector" d="M9.99962 14.6592V16.2852C9.99584 16.6278 9.9041 16.9637 9.7332 17.2607C9.56229 17.5577 9.31796 17.8058 9.02362 17.9812C8.39876 18.444 7.89046 19.0462 7.5391 19.7398C7.18775 20.4335 7.00303 21.1996 6.99962 21.9772" stroke="var(--stroke-0, #99A1AF)" stroke-width="1.99989" stroke-linecap="round" stroke-linejoin="round"/>
<path id="Vector_2" d="M13.9992 14.6592V16.2852C14.003 16.6278 14.0947 16.9637 14.2656 17.2607C14.4365 17.5577 14.6809 17.8058 14.9752 17.9812C15.6001 18.444 16.1084 19.0462 16.4597 19.7398C16.8111 20.4335 16.9958 21.1996 16.9992 21.9772" stroke="var(--stroke-0, #99A1AF)" stroke-width="1.99989" stroke-linecap="round" stroke-linejoin="round"/>
<path id="Vector_3" d="M17.999 8.99978H19.499C20.162 8.99978 20.7979 8.73639 21.2668 8.26755C21.7356 7.79871 21.999 7.16282 21.999 6.49978C21.999 5.83674 21.7356 5.20085 21.2668 4.73201C20.7979 4.26317 20.162 3.99978 19.499 3.99978H17.999" stroke="var(--stroke-0, #99A1AF)" stroke-width="1.99989" stroke-linecap="round" stroke-linejoin="round"/>
<path id="Vector_4" d="M3.99978 21.9988H19.9998" stroke="var(--stroke-0, #99A1AF)" stroke-width="1.99989" stroke-linecap="round" stroke-linejoin="round"/>
<path id="Vector_5" d="M5.99967 8.99989C5.99967 10.5912 6.63181 12.1173 7.75703 13.2425C8.88225 14.3677 10.4084 14.9999 11.9997 14.9999C13.591 14.9999 15.1171 14.3677 16.2423 13.2425C17.3675 12.1173 17.9997 10.5912 17.9997 8.99989V2.99989C17.9997 2.73467 17.8943 2.48032 17.7068 2.29278C17.5192 2.10525 17.2649 1.99989 16.9997 1.99989H6.99967C6.73445 1.99989 6.4801 2.10525 6.29256 2.29278C6.10503 2.48032 5.99967 2.73467 5.99967 2.99989V8.99989Z" stroke="var(--stroke-0, #99A1AF)" stroke-width="1.99989" stroke-linecap="round" stroke-linejoin="round"/>
<path id="Vector_6" d="M6 9H4.5C3.83696 9 3.20107 8.73661 2.73223 8.26777C2.26339 7.79893 2 7.16304 2 6.5C2 5.83696 2.26339 5.20107 2.73223 4.73223C3.20107 4.26339 3.83696 4 4.5 4H6" stroke="var(--stroke-0, #99A1AF)" stroke-width="1.99989" stroke-linecap="round" stroke-linejoin="round"/>
</g>
</svg>
