<svg preserveAspectRatio="none" width="100%" height="100%" overflow="visible" style="display: block;" viewBox="0 0 36 36" fill="none" xmlns="http://www.w3.org/2000/svg">
<g id="Button">
<path id="Vector" d="M16.1294 26.9944L15.7674 24.1024C15.4481 24.0058 15.1031 23.8544 14.7324 23.6484C14.3611 23.4418 14.0454 23.2204 13.7854 22.9844L11.1174 24.1194L9.25245 20.8694L11.5584 19.1304C11.5284 18.9504 11.5041 18.7644 11.4854 18.5724C11.4654 18.3804 11.4554 18.1941 11.4554 18.0134C11.4554 17.8454 11.4654 17.6688 11.4854 17.4834C11.5041 17.2981 11.5284 17.0894 11.5584 16.8574L9.25245 15.1204L11.1174 11.9084L13.7654 13.0244C14.0641 12.7758 14.3874 12.5514 14.7354 12.3514C15.0821 12.1514 15.4198 11.9968 15.7484 11.8874L16.1284 8.99442H19.8604L20.2214 11.9064C20.6048 12.0411 20.9434 12.1954 21.2374 12.3694C21.5314 12.5434 21.8344 12.7614 22.1464 13.0234L24.8714 11.9084L26.7364 15.1194L24.3544 16.9154C24.4091 17.1221 24.4398 17.3118 24.4464 17.4844C24.4531 17.6571 24.4564 17.8271 24.4564 17.9944C24.4564 18.1498 24.4498 18.3134 24.4364 18.4854C24.4238 18.6581 24.3944 18.8668 24.3484 19.1114L26.6924 20.8694L24.8274 24.1194L22.1464 22.9654C21.8351 23.2274 21.5218 23.4518 21.2064 23.6384C20.8911 23.8251 20.5628 23.9734 20.2214 24.0834L19.8604 26.9944H16.1294ZM16.9944 25.9944H18.9504L19.3194 23.2864C19.8234 23.1531 20.2768 22.9701 20.6794 22.7374C21.0834 22.5048 21.4941 22.1861 21.9114 21.7814L24.4064 22.8444L25.4004 21.1444L23.2114 19.5004C23.2948 19.2158 23.3501 18.9538 23.3774 18.7144C23.4041 18.4758 23.4174 18.2358 23.4174 17.9944C23.4174 17.7411 23.4041 17.5011 23.3774 17.2744C23.3508 17.0478 23.2954 16.7988 23.2114 16.5274L25.4384 14.8444L24.4444 13.1444L21.8924 14.2144C21.5898 13.8818 21.1921 13.5701 20.6994 13.2794C20.2061 12.9894 19.7394 12.7971 19.2994 12.7024L18.9944 9.99442H17.0004L16.6884 12.6834C16.1844 12.7908 15.7211 12.9641 15.2984 13.2034C14.8764 13.4421 14.4564 13.7704 14.0384 14.1884L11.5444 13.1444L10.5504 14.8444L12.7194 16.4644C12.6361 16.6884 12.5778 16.9318 12.5444 17.1944C12.5111 17.4571 12.4944 17.7304 12.4944 18.0144C12.4944 18.2678 12.5111 18.5194 12.5444 18.7694C12.5778 19.0194 12.6298 19.2628 12.7004 19.4994L10.5504 21.1444L11.5444 22.8444L14.0194 21.7944C14.4121 22.1904 14.8194 22.5081 15.2414 22.7474C15.6641 22.9868 16.1401 23.1731 16.6694 23.3064L16.9944 25.9944ZM17.9674 20.4944C18.6648 20.4944 19.2558 20.2521 19.7404 19.7674C20.2251 19.2828 20.4674 18.6918 20.4674 17.9944C20.4674 17.2971 20.2251 16.7061 19.7404 16.2214C19.2558 15.7368 18.6648 15.4944 17.9674 15.4944C17.2661 15.4944 16.6741 15.7368 16.1914 16.2214C15.7088 16.7061 15.4674 17.2971 15.4674 17.9944C15.4674 18.6918 15.7088 19.2828 16.1914 19.7674C16.6741 20.2521 17.2661 20.4944 17.9674 20.4944Z" fill="var(--fill-0, black)"/>
</g>
</svg>
