<svg preserveAspectRatio="none" width="100%" height="100%" overflow="visible" style="display: block;" viewBox="0 0 40 40" fill="none" xmlns="http://www.w3.org/2000/svg">
<g id="pointButtonIcon">
<rect width="40" height="40" rx="12" fill="var(--fill-0, white)"/>
<path id="Vector" d="M20 14.5V29.2769M8.3 26.3333C7.95522 26.3333 7.62456 26.2221 7.38076 26.0242C7.13696 25.8262 7 25.5577 7 25.2778V11.5556C7 11.2756 7.13696 11.0071 7.38076 10.8092C7.62456 10.6112 7.95522 10.5 8.3 10.5H14.8C16.1791 10.5 17.5018 10.9448 18.477 11.7367C19.4521 12.5285 20 13.6024 20 14.7222C20 13.6024 20.5479 12.5285 21.523 11.7367C22.4982 10.9448 23.8209 10.5 25.2 10.5H31.7C32.0448 10.5 32.3754 10.6112 32.6192 10.8092C32.863 11.0071 33 11.2756 33 11.5556V25.2778C33 25.5577 32.863 25.8262 32.6192 26.0242C32.3754 26.2221 32.0448 26.3333 31.7 26.3333H23.9C22.8657 26.3333 21.8737 26.667 21.1423 27.2608C20.4109 27.8547 20 28.6601 20 29.5C20 28.6601 19.5891 27.8547 18.8577 27.2608C18.1263 26.667 17.1343 26.3333 16.1 26.3333H8.3Z" stroke="var(--stroke-0, #364153)" stroke-width="1.66657" stroke-linecap="round" stroke-linejoin="round"/>
</g>
</svg>
