<svg preserveAspectRatio="none" width="100%" height="100%" overflow="visible" style="display: block;" viewBox="0 0 24 24" fill="none" xmlns="http://www.w3.org/2000/svg">
<g id="Icon">
<path id="Vector" d="M10.8265 16.3782C9.77873 16.9077 8.60008 17.1226 7.43284 16.997C6.2656 16.8714 5.15967 16.4107 4.24852 15.6704C3.33737 14.9301 2.65996 13.9419 2.29806 12.8251C1.93615 11.7083 1.90522 10.5106 2.20899 9.3766L7.62069 10.8265C7.0912 9.77873 6.87628 8.60008 7.00189 7.43284C7.1275 6.2656 7.58825 5.15967 8.32855 4.24852C9.06884 3.33737 10.057 2.65996 11.1738 2.29806C12.2906 1.93615 13.4883 1.90522 14.6223 2.20899L13.1724 7.62069C14.2202 7.0912 15.3988 6.87628 16.5661 7.00189C17.7333 7.1275 18.8392 7.58825 19.7504 8.32855C20.6615 9.06884 21.3389 10.057 21.7008 11.1738C22.0628 12.2906 22.0937 13.4883 21.7899 14.6223L16.3782 13.1724C16.9077 14.2202 17.1226 15.3988 16.997 16.5661C16.8714 17.7333 16.4107 18.8392 15.6704 19.7504C14.9301 20.6615 13.9419 21.3389 12.8251 21.7008C11.7083 22.0628 10.5106 22.0937 9.3766 21.7899L10.8265 16.3782Z" stroke="var(--stroke-0, #7A9AD3)" stroke-width="1.99989" stroke-linecap="round" stroke-linejoin="round"/>
<path id="Vector_2" d="M11.9993 11.9993V12.0093" stroke="var(--stroke-0, #7A9AD3)" stroke-width="1.99989" stroke-linecap="round" stroke-linejoin="round"/>
</g>
</svg>
