<svg preserveAspectRatio="none" width="100%" height="100%" overflow="visible" style="display: block;" viewBox="0 0 20 20" fill="none" xmlns="http://www.w3.org/2000/svg">
<g id="Icon">
<path id="Vector" d="M16.6667 6.66667H3.33333C2.8731 6.66667 2.5 7.03976 2.5 7.5V9.16667C2.5 9.6269 2.8731 10 3.33333 10H16.6667C17.1269 10 17.5 9.6269 17.5 9.16667V7.5C17.5 7.03976 17.1269 6.66667 16.6667 6.66667Z" stroke="var(--stroke-0, #FFE48A)" stroke-width="1.66667" stroke-linecap="round" stroke-linejoin="round"/>
<path id="Vector_2" d="M10 6.66667V17.5" stroke="var(--stroke-0, #FFE48A)" stroke-width="1.66667" stroke-linecap="round" stroke-linejoin="round"/>
<path id="Vector_3" d="M15.8333 10V15.8333C15.8333 16.2754 15.6577 16.6993 15.3452 17.0118C15.0326 17.3244 14.6087 17.5 14.1667 17.5H5.83333C5.39131 17.5 4.96738 17.3244 4.65482 17.0118C4.34226 16.6993 4.16667 16.2754 4.16667 15.8333V10" stroke="var(--stroke-0, #FFE48A)" stroke-width="1.66667" stroke-linecap="round" stroke-linejoin="round"/>
<path id="Vector_4" d="M6.25 6.66668C5.69747 6.66668 5.16756 6.44718 4.77686 6.05648C4.38616 5.66578 4.16667 5.13588 4.16667 4.58334C4.16667 4.03081 4.38616 3.5009 4.77686 3.1102C5.16756 2.7195 5.69747 2.50001 6.25 2.50001C7.0539 2.486 7.84169 2.87606 8.51061 3.61931C9.17954 4.36256 9.69856 5.42451 10 6.66668C10.3014 5.42451 10.8205 4.36256 11.4894 3.61931C12.1583 2.87606 12.9461 2.486 13.75 2.50001C14.3025 2.50001 14.8324 2.7195 15.2231 3.1102C15.6138 3.5009 15.8333 4.03081 15.8333 4.58334C15.8333 5.13588 15.6138 5.66578 15.2231 6.05648C14.8324 6.44718 14.3025 6.66668 13.75 6.66668" stroke="var(--stroke-0, #FFE48A)" stroke-width="1.66667" stroke-linecap="round" stroke-linejoin="round"/>
</g>
</svg>
