<svg preserveAspectRatio="none" width="100%" height="100%" overflow="visible" style="display: block;" viewBox="0 0 32 34" fill="none" xmlns="http://www.w3.org/2000/svg">
<g id="Icon">
<path id="Vector" d="M21.3333 14.1667C21.3333 15.6696 20.7714 17.1109 19.7712 18.1736C18.771 19.2363 17.4145 19.8333 16 19.8333C14.5855 19.8333 13.229 19.2363 12.2288 18.1736C11.2286 17.1109 10.6667 15.6696 10.6667 14.1667" stroke="var(--stroke-0, #364153)" stroke-width="1.66657" stroke-linecap="round" stroke-linejoin="round"/>
<path id="Vector_2" d="M4.13733 8.54816H27.8627" stroke="var(--stroke-0, #364153)" stroke-width="1.66657" stroke-linecap="round" stroke-linejoin="round"/>
<path id="Vector_3" d="M4.53333 7.74492C4.18714 8.23536 4 8.83187 4 9.44492V28.3333C4 29.0848 4.28095 29.8055 4.78105 30.3368C5.28115 30.8682 5.95942 31.1667 6.66667 31.1667H25.3333C26.0406 31.1667 26.7189 30.8682 27.219 30.3368C27.719 29.8055 28 29.0848 28 28.3333V9.44492C28 8.83187 27.8129 8.23536 27.4667 7.74492L24.8 3.96667C24.5516 3.61478 24.2295 3.32917 23.8592 3.13246C23.489 2.93574 23.0807 2.83333 22.6667 2.83333H9.33333C8.91935 2.83333 8.51104 2.93574 8.14076 3.13246C7.77048 3.32917 7.44839 3.61478 7.2 3.96667L4.53333 7.74492Z" stroke="var(--stroke-0, #364153)" stroke-width="1.66657" stroke-linecap="round" stroke-linejoin="round"/>
</g>
</svg>
