<svg preserveAspectRatio="none" width="100%" height="100%" overflow="visible" style="display: block;" viewBox="0 0 32 34" fill="none" xmlns="http://www.w3.org/2000/svg">
<g id="Icon">
<path id="Vector" d="M14.6667 19.8333H17.3333C18.0406 19.8333 18.7189 19.5348 19.219 19.0035C19.719 18.4721 20 17.7514 20 17C20 16.2486 19.719 15.5279 19.219 14.9965C18.7189 14.4652 18.0406 14.1667 17.3333 14.1667H13.3333C12.5333 14.1667 11.8667 14.45 11.4667 15.0167L4 22.6667" stroke="var(--stroke-0, #364153)" stroke-width="1.66657" stroke-linecap="round" stroke-linejoin="round"/>
<path id="Vector_2" d="M19.2667 18.9692L26 12.3193C26.928 11.3333 28 9.70418 28 8.14585C28.0002 7.35726 27.7751 6.58719 27.3545 5.93743C26.934 5.28766 26.3377 4.7888 25.6446 4.50678C24.9515 4.22477 24.1942 4.17288 23.4727 4.35797C22.7512 4.54307 22.0996 4.95644 21.604 5.54343C21.5695 5.58318 21.5277 5.61491 21.4811 5.63662C21.4345 5.65832 21.3842 5.66952 21.3333 5.66952C21.2825 5.66952 21.2322 5.65832 21.1856 5.63662C21.139 5.61491 21.0971 5.58318 21.0627 5.54343C20.567 4.95644 19.9154 4.54307 19.194 4.35797C18.4725 4.17288 17.7152 4.22477 17.0221 4.50678C16.3289 4.7888 15.7327 5.28766 15.3121 5.93743C14.8916 6.58719 14.6665 7.35726 14.6667 8.14585C14.6667 9.84585 15.736 11.3305 16.6667 12.3193L21.3333 16.9292" stroke="var(--stroke-0, #364153)" stroke-width="1.66657" stroke-linecap="round" stroke-linejoin="round"/>
<path id="Vector_3" d="M2.66667 21.25L10.6667 29.75" stroke="var(--stroke-0, #364153)" stroke-width="1.66657" stroke-linecap="round" stroke-linejoin="round"/>
<path id="Vector_4" d="M9.33333 28.3333L11.4667 26.35C11.8667 25.7833 12.5333 25.5 13.3333 25.5H18.6667C20.1333 25.5 21.4667 24.9333 22.4 23.8L28.5333 17.5667C29.0479 17.05 29.3481 16.3374 29.3681 15.5856C29.3882 14.8337 29.1262 14.1042 28.64 13.5575C28.1538 13.0108 27.4831 12.6918 26.7754 12.6705C26.0678 12.6492 25.3812 12.9275 24.8667 13.4442" stroke="var(--stroke-0, #364153)" stroke-width="1.66657" stroke-linecap="round" stroke-linejoin="round"/>
</g>
</svg>
