<svg preserveAspectRatio="none" width="100%" height="100%" overflow="visible" style="display: block;" viewBox="0 0 24 24" fill="none" xmlns="http://www.w3.org/2000/svg">
<g id="Icon">
<g id="Vector">
<path d="M14.9977 20.9968V12.998C14.9977 12.7328 14.8923 12.4785 14.7048 12.291C14.5173 12.1035 14.263 11.9981 13.9978 11.9981H9.99846C9.73328 11.9981 9.47897 12.1035 9.29146 12.291C9.10395 12.4785 8.99861 12.7328 8.99861 12.998V20.9968" fill="var(--fill-0, #00A63E)"/>
<path d="M14.9977 20.9968V12.998C14.9977 12.7328 14.8923 12.4785 14.7048 12.291C14.5173 12.1035 14.263 11.9981 13.9978 11.9981H9.99846C9.73328 11.9981 9.47897 12.1035 9.29146 12.291C9.10395 12.4785 8.99861 12.7328 8.99861 12.998V20.9968" stroke="var(--stroke-0, #00A63E)" stroke-width="1.99969" stroke-linecap="round" stroke-linejoin="round"/>
</g>
<path id="Vector_2" d="M2.99954 9.99845C2.99947 9.70756 3.06286 9.42016 3.1853 9.1563C3.30773 8.89243 3.48626 8.65845 3.70843 8.47068L10.7073 2.47161C11.0683 2.16657 11.5256 1.9992 11.9981 1.9992C12.4707 1.9992 12.928 2.16657 13.289 2.47161L20.2879 8.47068C20.51 8.65845 20.6886 8.89243 20.811 9.1563C20.9334 9.42016 20.9968 9.70756 20.9968 9.99845V18.9971C20.9968 19.5274 20.7861 20.036 20.4111 20.4111C20.036 20.7861 19.5274 20.9967 18.9971 20.9967H4.99923C4.46888 20.9967 3.96025 20.7861 3.58523 20.4111C3.21022 20.036 2.99954 19.5274 2.99954 18.9971V9.99845Z" fill="var(--fill-0, #6BBF76)" stroke="var(--stroke-0, #6BBF76)" stroke-width="1.99969" stroke-linecap="round" stroke-linejoin="round"/>
</g>
</svg>
